Coordinates
nRows=137
nColumns=2
inDegrees=yes
endheader
time	ankle_angle_r	
2.5625	  9.440468	
2.625	  9.396871	
2.6875	  9.521484	
2.75	  9.521484	
2.8125	  9.539831	
2.875	  9.585790	
2.9375	  9.513128	
3	  9.544009	
3.0625	  9.563446	
3.125	  9.494963	
3.1875	  9.547824	
3.25	  9.519304	
3.3125	  9.506226	
3.375	  9.618850	
3.4375	  9.486062	
3.5	  9.506226	
3.5625	  9.510948	
3.625	  9.404863	
3.6875	  9.405046	
3.75	  9.460449	
3.8125	  9.432656	
3.875	  9.472801	
3.9375	  9.399414	
4	  9.469169	
4.0625	  9.384155	
4.125	  9.436834	
4.1875	  9.546007	
4.25	  9.490967	
4.3125	  9.575071	
4.375	  9.567261	
4.4375	  9.529658	
4.5	  9.552002	
4.5625	  9.490967	
4.625	  9.545099	
4.6875	  9.519668	
4.75	  9.560721	
4.8125	  9.564717	
4.875	  9.512402	
4.9375	  9.536743	
5	  9.487333	
5.0625	  9.425936	
5.125	  9.439741	
5.1875	  9.485699	
5.25	  9.516398	
5.3125	  9.536743	
5.375	  9.460449	
5.4375	  9.455908	
5.5	  9.466989	
5.5625	  9.434110	
5.625	  9.475708	
5.6875	  9.490967	
5.75	  9.586153	
5.8125	  9.509677	
5.875	  9.567261	
5.9375	  9.582520	
6	  9.521484	
6.0625	  9.539468	
6.125	  9.511312	
6.1875	  9.539104	
6.25	  9.610857	
6.3125	  9.552002	
6.375	  9.555635	
6.4375	  9.492601	
6.5	  9.399414	
6.5625	  9.446462	
6.625	  9.384155	
6.6875	  9.472983	
6.75	  9.461903	
6.8125	  9.460449	
6.875	  9.446280	
6.9375	  9.415036	
7	  9.490967	
7.0625	  9.460630	
7.125	  9.414310	
7.1875	  9.445190	
7.25	  9.445190	
7.3125	  9.490967	
7.375	  9.429932	
7.4375	  9.399414	
7.5	  9.429932	
7.5625	  9.411403	
7.625	  9.418306	
7.6875	  9.504228	
7.75	  9.427752	
7.8125	  9.478069	
7.875	  9.513855	
7.9375	  9.450640	
8	  9.490967	
8.0625	  9.463537	
8.125	  9.448461	
8.1875	  9.555453	
8.25	  9.536743	
8.3125	  9.590149	
8.375	  9.517488	
8.4375	  9.499323	
8.5	  9.582520	
8.5625	  9.516943	
8.625	  9.515672	
8.6875	  9.536743	
8.75	  9.450276	
8.8125	  9.501503	
8.875	  9.399414	
8.9375	  9.405046	
9	  9.414673	
9.0625	  9.411403	
9.125	  9.445190	
9.1875	  9.484609	
9.25	  9.512765	
9.3125	  9.431748	
9.375	  9.438288	
9.4375	  9.460449	
9.5	  9.459723	
9.5625	  9.490967	
9.625	  9.536743	
9.6875	  9.536743	
9.75	  9.551275	
9.8125	  9.505136	
9.875	  9.521484	
9.9375	  9.489150	
10	  9.506226	
10.0625	  9.475708	
10.125	  9.402684	
10.1875	  9.384155	
10.25	  9.399414	
10.3125	  9.338379	
10.375	  9.353638	
10.4375	  9.384155	
10.5	  9.348552	
10.5625	  9.450640	
10.625	  9.419395	
10.6875	  9.449732	
10.75	  9.445190	
10.8125	  9.399414	
10.875	  9.452456	
10.9375	  9.460449	
11	  9.426298	
11.0625	  9.453547	
